<?xml version="1.0" standalone="no"?>
<!DOCTYPE svg PUBLIC "-//W3C//DTD SVG 20010904//EN"
 "http://www.w3.org/TR/2001/REC-SVG-20010904/DTD/svg10.dtd">
<svg version="1.0" xmlns="http://www.w3.org/2000/svg"
 width="200.000000pt" height="66.000000pt" viewBox="0 0 200.000000 66.000000"
 preserveAspectRatio="xMidYMid meet">

<g transform="translate(0.000000,66.000000) scale(0.100000,-0.100000)"
fill="#000000" stroke="none">
<path d="M568 340 c-2 -53 0 -70 10 -70 10 0 12 12 7 48 l-7 47 36 -40 c19
-22 35 -43 36 -47 0 -5 7 -8 15 -8 12 0 15 14 15 70 0 78 -17 96 -22 24 l-3
-46 -34 46 c-19 25 -38 46 -42 46 -4 0 -9 -32 -11 -70z"/>
<path d="M1228 340 c3 -47 8 -70 16 -70 8 0 11 10 8 30 -2 18 0 30 7 30 6 0
17 -13 26 -30 13 -26 45 -42 45 -23 0 15 -52 73 -66 73 -9 0 -14 10 -14 30 0
17 -5 30 -12 30 -10 0 -12 -19 -10 -70z"/>
<path d="M1287 383 c-3 -16 -3 -30 -1 -32 8 -8 34 22 34 40 0 29 -27 22 -33
-8z"/>
<path d="M1350 340 c0 -78 17 -96 22 -24 l3 47 33 -47 c18 -25 37 -46 43 -46
5 0 9 32 9 70 0 39 -4 70 -10 70 -5 0 -7 -22 -3 -52 l6 -53 -39 52 c-53 72
-64 69 -64 -17z"/>
<path d="M706 373 c-11 -11 -6 -69 8 -88 8 -12 20 -16 35 -12 22 5 25 0 15
-27 -8 -20 -34 -21 -34 -1 0 17 -16 20 -25 5 -11 -17 40 -34 64 -21 18 10 21
21 21 81 0 40 -4 70 -10 70 -5 0 -10 -17 -10 -37 0 -21 -4 -44 -9 -52 -15 -23
-31 -2 -31 39 0 37 -10 56 -24 43z"/>
<path d="M829 359 c-22 -22 -20 -66 4 -81 17 -11 55 -10 62 2 3 6 -1 7 -10 4
-24 -10 -45 14 -41 47 4 37 13 46 28 31 8 -8 8 -15 -2 -27 -10 -13 -9 -15 8
-15 27 0 38 31 16 47 -25 18 -41 16 -65 -8z"/>
<path d="M942 364 c-41 -28 -22 -94 28 -94 16 0 32 5 36 12 5 8 2 9 -11 5 -24
-10 -45 10 -45 44 0 31 16 47 32 31 8 -8 7 -16 -2 -27 -10 -12 -10 -15 3 -15
8 0 20 6 26 14 9 11 8 18 -4 30 -20 20 -35 20 -63 0z"/>
<path d="M1034 364 c3 -9 6 -33 6 -55 0 -28 4 -39 15 -39 11 0 15 12 15 45 0
33 4 45 14 45 10 0 16 -13 18 -42 4 -59 28 -63 28 -5 0 53 -21 78 -50 59 -12
-7 -21 -8 -25 -2 -10 16 -28 11 -21 -6z"/>
<path d="M1166 293 c-11 -11 -6 -23 9 -23 8 0 15 4 15 9 0 13 -16 22 -24 14z"/>
</g>
</svg>
